<svg width="30" height="35" viewBox="0 0 30 35" fill="none" xmlns="http://www.w3.org/2000/svg">
<path fill-rule="evenodd" clip-rule="evenodd" d="M18.92 11.4902C18.92 13.1471 17.5769 14.4902 15.92 14.4902C14.2632 14.4902 12.92 13.1471 12.92 11.4902C12.92 9.83338 14.2632 8.49023 15.92 8.49023C17.5769 8.49023 18.92 9.83338 18.92 11.4902ZM26.92 11.4902C26.92 17.5654 21.9951 22.4902 15.92 22.4902C9.84488 22.4902 4.92002 17.5654 4.92002 11.4902C4.92002 5.4151 9.84488 0.490234 15.92 0.490234C21.9951 0.490234 26.92 5.4151 26.92 11.4902ZM0.83 28.4302V32.4902H2.39V28.4302H3.73V27.2302H2.35V27.0002C2.35 26.7402 2.41 26.5469 2.53 26.4202C2.65667 26.2869 2.83333 26.2202 3.06 26.2202C3.18 26.2202 3.29333 26.2369 3.4 26.2702C3.50667 26.3036 3.60333 26.3502 3.69 26.4102L4.1 25.2802C3.95333 25.1802 3.77333 25.1069 3.56 25.0602C3.35333 25.0136 3.13667 24.9902 2.91 24.9902C2.24333 24.9902 1.73 25.1736 1.37 25.5402C1.01 25.9002 0.83 26.3836 0.83 26.9902V27.2302H0V28.4302H0.83ZM4.69719 28.4302V32.4902H6.25719V28.4302H7.59719V27.2302H6.21719V27.0002C6.21719 26.7402 6.27719 26.5469 6.39719 26.4202C6.52385 26.2869 6.70052 26.2202 6.92719 26.2202C7.04719 26.2202 7.16052 26.2369 7.26719 26.2702C7.37385 26.3036 7.47052 26.3502 7.55719 26.4102L7.96719 25.2802C7.82052 25.1802 7.64052 25.1069 7.42719 25.0602C7.22052 25.0136 7.00385 24.9902 6.77719 24.9902C6.11052 24.9902 5.59719 25.1736 5.23719 25.5402C4.87719 25.9002 4.69719 26.3836 4.69719 26.9902V27.2302H3.86719V28.4302H4.69719ZM8.47719 27.1102V32.4902H10.0372V27.1102H8.47719ZM8.55719 26.1102C8.73719 26.2769 8.97052 26.3602 9.25719 26.3602C9.55052 26.3602 9.78385 26.2769 9.95719 26.1102C10.1372 25.9369 10.2272 25.7202 10.2272 25.4602C10.2272 25.2136 10.1372 25.0136 9.95719 24.8602C9.77719 24.7002 9.54385 24.6202 9.25719 24.6202C8.97052 24.6202 8.73719 24.7036 8.55719 24.8702C8.37719 25.0369 8.28719 25.2436 8.28719 25.4902C8.28719 25.7369 8.37719 25.9436 8.55719 26.1102ZM12.5298 32.2202C12.9832 32.4536 13.4998 32.5702 14.0798 32.5702C14.6465 32.5702 15.1398 32.4536 15.5598 32.2202C15.9798 31.9802 16.2898 31.6436 16.4898 31.2102L15.2798 30.5502C15.1398 30.8102 14.9632 31.0002 14.7498 31.1202C14.5432 31.2336 14.3165 31.2902 14.0698 31.2902C13.8032 31.2902 13.5632 31.2302 13.3498 31.1102C13.1365 30.9902 12.9665 30.8202 12.8398 30.6002C12.7198 30.3802 12.6598 30.1136 12.6598 29.8002C12.6598 29.4869 12.7198 29.2202 12.8398 29.0002C12.9665 28.7802 13.1365 28.6102 13.3498 28.4902C13.5632 28.3702 13.8032 28.3102 14.0698 28.3102C14.3165 28.3102 14.5432 28.3702 14.7498 28.4902C14.9632 28.6102 15.1398 28.7969 15.2798 29.0502L16.4898 28.4002C16.2898 27.9602 15.9798 27.6236 15.5598 27.3902C15.1398 27.1502 14.6465 27.0302 14.0798 27.0302C13.4998 27.0302 12.9832 27.1502 12.5298 27.3902C12.0765 27.6236 11.7198 27.9502 11.4598 28.3702C11.2065 28.7836 11.0798 29.2602 11.0798 29.8002C11.0798 30.3336 11.2065 30.8102 11.4598 31.2302C11.7198 31.6502 12.0765 31.9802 12.5298 32.2202ZM17.4387 26.1102C17.6187 26.2769 17.8521 26.3602 18.1388 26.3602C18.4321 26.3602 18.6654 26.2769 18.8388 26.1102C19.0187 25.9369 19.1087 25.7202 19.1087 25.4602C19.1087 25.2136 19.0187 25.0136 18.8388 24.8602C18.6588 24.7002 18.4254 24.6202 18.1388 24.6202C17.8521 24.6202 17.6187 24.7036 17.4387 24.8702C17.2588 25.0369 17.1688 25.2436 17.1688 25.4902C17.1688 25.7369 17.2588 25.9436 17.4387 26.1102ZM21.0866 32.0902C21.4399 32.4102 21.9332 32.5702 22.5666 32.5702C22.8066 32.5702 23.0366 32.5436 23.2566 32.4902C23.4832 32.4302 23.6766 32.3436 23.8366 32.2302L23.4166 31.1302C23.2432 31.2636 23.0332 31.3302 22.7866 31.3302C22.5799 31.3302 22.4166 31.2702 22.2966 31.1502C22.1766 31.0236 22.1166 30.8469 22.1166 30.6202V28.4302H23.4566V27.2302H22.1166V25.9202H20.5566V27.2302H19.7266V28.4302H20.5566V30.6402C20.5566 31.2802 20.7332 31.7636 21.0866 32.0902ZM17.3587 27.1102V32.4902H18.9188V27.1102H17.3587ZM24.4646 34.3802C24.7379 34.4669 25.0146 34.5102 25.2946 34.5102C25.6213 34.5102 25.9179 34.4602 26.1846 34.3602C26.4579 34.2602 26.7046 34.0869 26.9246 33.8402C27.1513 33.5936 27.3513 33.2536 27.5246 32.8202L29.9546 27.1102H28.4546L26.9348 30.764L25.4246 27.1102H23.8146L26.1437 32.5352L26.1246 32.5802C26.0179 32.8202 25.8979 32.9902 25.7646 33.0902C25.6379 33.1969 25.4646 33.2502 25.2446 33.2502C25.0913 33.2502 24.9346 33.2202 24.7746 33.1602C24.6213 33.1002 24.4846 33.0169 24.3646 32.9102L23.7946 34.0202C23.9679 34.1736 24.1913 34.2936 24.4646 34.3802Z" fill="#197BEB"/>
</svg>
