<svg width="16" height="16" viewBox="0 0 16 16" fill="none" xmlns="http://www.w3.org/2000/svg">
<path d="M9.60003 3.19998H12C12.48 3.19998 12.8 3.51998 12.8 3.99998V4.79998H2.40002V3.99998C2.40002 3.51998 2.80002 3.19998 3.20002 3.19998H5.60002C5.76002 2.31998 6.64002 1.59998 7.60002 1.59998C8.56003 1.59998 9.44002 2.31998 9.60003 3.19998ZM6.40002 3.19998H8.80002C8.64003 2.71998 8.08002 2.39998 7.60002 2.39998C7.12002 2.39998 6.56002 2.71998 6.40002 3.19998ZM3.20002 5.59998H12L11.28 13.68C11.28 14.08 10.88 14.4 10.48 14.4H4.72002C4.32002 14.4 4.00002 14.08 3.92002 13.68L3.20002 5.59998Z" fill="#070723"/>
</svg>
