<svg width="24" height="25" viewBox="0 0 24 25" fill="none" xmlns="http://www.w3.org/2000/svg">
<path d="M23.7229 0.71285C23.5878 0.57853 23.4171 0.485532 23.2308 0.444791C23.0446 0.404049 22.8506 0.417257 22.6717 0.482862L0.646102 8.48245C0.45615 8.55441 0.292612 8.68239 0.177209 8.84939C0.0618062 9.01638 0 9.21449 0 9.4174C0 9.62031 0.0618062 9.81842 0.177209 9.98542C0.292612 10.1524 0.45615 10.2804 0.646102 10.3524L10.2573 14.1922L14.1017 23.7917C14.1739 23.9731 14.2978 24.1294 14.4579 24.2413C14.618 24.3532 14.8074 24.4159 15.0028 24.4216C15.2051 24.4175 15.4014 24.3522 15.5658 24.2344C15.7302 24.1166 15.8551 23.9518 15.9238 23.7617L23.9331 1.7628C24.0013 1.58588 24.0178 1.39325 23.9806 1.20735C23.9433 1.02145 23.854 0.849953 23.7229 0.71285ZM15.0028 20.6218L12.2095 13.6222L17.0051 8.83243L15.5934 7.42251L10.7578 12.2523L3.78975 9.4224L21.3401 3.09273L15.0028 20.6218Z" fill="white"/>
</svg>
