<svg width="16" height="16" viewBox="0 0 16 16" fill="none" xmlns="http://www.w3.org/2000/svg">
<rect x="5.09094" y="6" width="5.81818" height="1.33333" rx="0.666667" fill="#070723"/>
<path d="M9.72578 1.94847L14.0977 5.2678C14.6817 6.01432 15 6.93573 15 7.88566V12.9091V13.6C15 14.3732 14.3732 15 13.6 15H11.8H11.4V12.8364C11.4 11.6213 10.415 10.6364 9.2 10.6364H8H6.8C5.58497 10.6364 4.6 11.6213 4.6 12.8364V15H4.1H2.6C1.71634 15 1 14.2837 1 13.4V12.9091V8.23734C1 7.11085 1.49224 6.04067 2.34742 5.3076L6.347 1.93766C7.41875 1.44358 8.65533 1.44669 9.72578 1.94847Z" stroke="#070723" stroke-width="2"/>
</svg>
