<svg width="16" height="16" viewBox="0 0 16 16" fill="none" xmlns="http://www.w3.org/2000/svg">
<path d="M13 6.28688C13 9.25126 10.7179 11.5738 8 11.5738C5.28208 11.5738 3 9.25126 3 6.28688C3 3.32249 5.28208 1 8 1C10.7179 1 13 3.32249 13 6.28688Z" stroke="#070723" stroke-width="2"/>
<path d="M3.26318 14.2962C3.26318 13.8036 3.72148 13.4392 4.2014 13.5501L7.2646 14.258C7.74851 14.3699 8.25154 14.3699 8.73545 14.258L11.7987 13.5501C12.2786 13.4392 12.7369 13.8036 12.7369 14.2962C12.7369 14.6527 12.4909 14.962 12.1435 15.0423L9.06665 15.7534C8.36482 15.9156 7.63524 15.9156 6.9334 15.7534L3.85653 15.0423C3.50919 14.962 3.26318 14.6527 3.26318 14.2962Z" fill="#070723"/>
</svg>
