<svg width="12" height="16" viewBox="0 0 12 16" fill="none" xmlns="http://www.w3.org/2000/svg">
<path d="M11 6.28688C11 9.25126 8.71792 11.5738 6 11.5738C3.28208 11.5738 1 9.25126 1 6.28688C1 3.32249 3.28208 1 6 1C8.71792 1 11 3.32249 11 6.28688Z" stroke="#070723" stroke-width="2"/>
<path d="M1.26318 14.2962C1.26318 13.8036 1.72148 13.4392 2.2014 13.5501L5.2646 14.258C5.74851 14.3699 6.25154 14.3699 6.73545 14.258L9.79865 13.5501C10.2786 13.4392 10.7369 13.8036 10.7369 14.2962C10.7369 14.6527 10.4909 14.962 10.1435 15.0423L7.06665 15.7534C6.36482 15.9156 5.63524 15.9156 4.9334 15.7534L1.85653 15.0423C1.50919 14.962 1.26318 14.6527 1.26318 14.2962Z" fill="#070723"/>
</svg>
