<svg width="12" height="16" viewBox="0 0 12 16" fill="none" xmlns="http://www.w3.org/2000/svg">
<path d="M11 6.28688C11 9.25126 8.71792 11.5738 6 11.5738C3.28208 11.5738 1 9.25126 1 6.28688C1 3.32249 3.28208 1 6 1C8.71792 1 11 3.32249 11 6.28688Z" stroke="#197BEB" stroke-width="2"/>
<path d="M1.26315 14.2962C1.26315 13.8036 1.72145 13.4392 2.20137 13.5501L5.26457 14.258C5.74848 14.3699 6.25151 14.3699 6.73542 14.258L9.79862 13.5501C10.2785 13.4392 10.7368 13.8036 10.7368 14.2962C10.7368 14.6527 10.4908 14.962 10.1435 15.0423L7.06662 15.7534C6.36479 15.9156 5.6352 15.9156 4.93337 15.7534L1.8565 15.0423C1.50916 14.962 1.26315 14.6527 1.26315 14.2962Z" fill="#197BEB"/>
</svg>
