<svg width="33" height="32" viewBox="0 0 33 32" fill="none" xmlns="http://www.w3.org/2000/svg">
<mask id="path-1-inside-1_1302_4006" fill="white">
<path d="M0.666748 16.4747C0.666748 13.6349 1.90897 10.9371 4.06675 9.09091V9.09091L12.2667 2.18182V2.18182C15.0422 0.805548 18.2984 0.791085 21.086 2.14265L21.1667 2.18182L30.2667 9.09091V9.09091C31.8182 10.9715 32.6667 13.3334 32.6667 15.7713V25.8182V27.2C32.6667 29.851 30.5177 32 27.8667 32V32H24.2667H22.5577C21.9552 32 21.4667 31.5116 21.4667 30.9091V30.9091V25.6727C21.4667 24.3472 20.3922 23.2727 19.0667 23.2727V23.2727H16.6667H14.2667V23.2727C12.9413 23.2727 11.8667 24.3472 11.8667 25.6727V30.9091V30.9091C11.8667 31.5116 11.3783 32 10.7758 32H8.86675H5.86675V32C2.99487 32 0.666748 29.6719 0.666748 26.8V25.8182V16.4747Z"/>
</mask>
<path d="M21.1667 2.18182L22.3761 0.588911L22.218 0.468827L22.0393 0.38219L21.1667 2.18182ZM20.2134 3.94227L20.2942 3.98145L22.0393 0.38219L21.9585 0.343018L20.2134 3.94227ZM19.9573 3.77472L29.0573 10.6838L31.4761 7.498L22.3761 0.588911L19.9573 3.77472ZM5.35544 10.6204L13.5554 3.71129L10.9781 0.652348L2.77806 7.56144L5.35544 10.6204ZM2.66675 26.8V25.8182H-1.33325V26.8H2.66675ZM2.66675 25.8182V16.4747H-1.33325V25.8182H2.66675ZM30.6667 15.7713V25.8182H34.6667V15.7713H30.6667ZM30.6667 25.8182V27.2H34.6667V25.8182H30.6667ZM10.7758 30H8.86675V34H10.7758V30ZM24.2667 30H22.5577V34H24.2667V30ZM9.86675 25.6727V30.9091H13.8667V25.6727H9.86675ZM23.4667 30.9091V25.6727H19.4667V30.9091H23.4667ZM19.0667 21.2727H16.6667V25.2727H19.0667V21.2727ZM16.6667 21.2727H14.2667V25.2727H16.6667V21.2727ZM8.86675 30H5.86675V34H8.86675V30ZM27.8667 30H24.2667V34H27.8667V30ZM13.8667 25.6727C13.8667 25.4518 14.0458 25.2727 14.2667 25.2727V21.2727C11.8367 21.2727 9.86675 23.2427 9.86675 25.6727H13.8667ZM23.4667 25.6727C23.4667 23.2427 21.4968 21.2727 19.0667 21.2727V25.2727C19.2877 25.2727 19.4667 25.4518 19.4667 25.6727H23.4667ZM22.5577 30C23.0597 30 23.4667 30.407 23.4667 30.9091H19.4667C19.4667 32.6162 20.8506 34 22.5577 34V30ZM21.9585 0.343018C18.6143 -1.27843 14.7079 -1.26108 11.3782 0.390012L13.1552 3.97362C15.3765 2.87217 17.9825 2.8606 20.2134 3.94227L21.9585 0.343018ZM10.7758 34C12.4829 34 13.8667 32.6162 13.8667 30.9091H9.86675C9.86675 30.407 10.2738 30 10.7758 30V34ZM-1.33325 26.8C-1.33325 30.7765 1.8903 34 5.86675 34V30C4.09944 30 2.66675 28.5673 2.66675 26.8H-1.33325ZM30.6667 27.2C30.6667 28.7464 29.4131 30 27.8667 30V34C31.6223 34 34.6667 30.9555 34.6667 27.2H30.6667ZM28.724 10.3637C29.9799 11.8859 30.6667 13.7979 30.6667 15.7713H34.6667C34.6667 12.8689 33.6565 10.057 31.8095 7.81814L28.724 10.3637ZM2.7665 7.57125C0.164627 9.79745 -1.33325 13.0504 -1.33325 16.4747H2.66675C2.66675 14.2193 3.6533 12.0768 5.36699 10.6106L2.7665 7.57125Z" fill="#FF5958" mask="url(#path-1-inside-1_1302_4006)"/>
<rect x="23.9395" width="8.72727" height="7.69231" rx="3.84615" fill="#FF5958"/>
<rect x="10.8486" y="12" width="11.6364" height="2.66667" rx="1.33333" fill="#FF5958"/>
</svg>
