<svg width="33" height="33" viewBox="0 0 33 33" fill="none" xmlns="http://www.w3.org/2000/svg">
<mask id="path-1-inside-1_1302_4017" fill="white">
<path d="M0.333252 16.4747C0.333252 13.6349 1.57547 10.9371 3.73325 9.09091V9.09091L11.9333 2.18182V2.18182C14.7087 0.805548 17.9649 0.791085 20.7525 2.14265L20.8333 2.18182L29.9333 9.09091V9.09091C31.4847 10.9715 32.3333 13.3334 32.3333 15.7713V25.8182V27.2C32.3333 29.851 30.1842 32 27.5333 32V32H23.9333H22.2242C21.6217 32 21.1333 31.5116 21.1333 30.9091V30.9091V25.6727C21.1333 24.3472 20.0587 23.2727 18.7333 23.2727V23.2727H16.3333H13.9333V23.2727C12.6078 23.2727 11.5333 24.3472 11.5333 25.6727V30.9091V30.9091C11.5333 31.5116 11.0448 32 10.4423 32H8.53325H5.53325V32C2.66137 32 0.333252 29.6719 0.333252 26.8V25.8182V16.4747Z"/>
</mask>
<path d="M20.8333 2.18182L22.0427 0.588911L21.8845 0.468827L21.7058 0.38219L20.8333 2.18182ZM19.8799 3.94227L19.9607 3.98145L21.7058 0.38219L21.625 0.343018L19.8799 3.94227ZM19.6239 3.77472L28.7239 10.6838L31.1427 7.498L22.0427 0.588911L19.6239 3.77472ZM5.02194 10.6204L13.2219 3.71129L10.6446 0.652348L2.44456 7.56144L5.02194 10.6204ZM2.33325 26.8V25.8182H-1.66675V26.8H2.33325ZM2.33325 25.8182V16.4747H-1.66675V25.8182H2.33325ZM30.3333 15.7713V25.8182H34.3333V15.7713H30.3333ZM30.3333 25.8182V27.2H34.3333V25.8182H30.3333ZM10.4423 30H8.53325V34H10.4423V30ZM23.9333 30H22.2242V34H23.9333V30ZM9.53325 25.6727V30.9091H13.5333V25.6727H9.53325ZM23.1333 30.9091V25.6727H19.1333V30.9091H23.1333ZM18.7333 21.2727H16.3333V25.2727H18.7333V21.2727ZM16.3333 21.2727H13.9333V25.2727H16.3333V21.2727ZM8.53325 30H5.53325V34H8.53325V30ZM27.5333 30H23.9333V34H27.5333V30ZM13.5333 25.6727C13.5333 25.4518 13.7123 25.2727 13.9333 25.2727V21.2727C11.5032 21.2727 9.53325 23.2427 9.53325 25.6727H13.5333ZM23.1333 25.6727C23.1333 23.2427 21.1633 21.2727 18.7333 21.2727V25.2727C18.9542 25.2727 19.1333 25.4518 19.1333 25.6727H23.1333ZM22.2242 30C22.7262 30 23.1333 30.407 23.1333 30.9091H19.1333C19.1333 32.6162 20.5171 34 22.2242 34V30ZM21.625 0.343018C18.2808 -1.27843 14.3744 -1.26108 11.0448 0.390012L12.8218 3.97362C15.043 2.87217 17.649 2.8606 19.8799 3.94227L21.625 0.343018ZM10.4423 34C12.1494 34 13.5333 32.6162 13.5333 30.9091H9.53325C9.53325 30.407 9.94027 30 10.4423 30V34ZM-1.66675 26.8C-1.66675 30.7765 1.5568 34 5.53325 34V30C3.76594 30 2.33325 28.5673 2.33325 26.8H-1.66675ZM30.3333 27.2C30.3333 28.7464 29.0797 30 27.5333 30V34C31.2888 34 34.3333 30.9555 34.3333 27.2H30.3333ZM28.3905 10.3637C29.6464 11.8859 30.3333 13.7979 30.3333 15.7713H34.3333C34.3333 12.8689 33.323 10.057 31.476 7.81814L28.3905 10.3637ZM2.43301 7.57125C-0.168869 9.79745 -1.66675 13.0504 -1.66675 16.4747H2.33325C2.33325 14.2193 3.31981 12.0768 5.0335 10.6106L2.43301 7.57125Z" fill="#FCAB4A" mask="url(#path-1-inside-1_1302_4017)"/>
<rect x="10.5151" y="12" width="11.6364" height="2.66667" rx="1.33333" fill="#FCAB4A"/>
<rect x="10.5151" y="23.0771" width="11.6364" height="8.97436" fill="#FCAB4A"/>
</svg>
