<svg width="32" height="32" viewBox="0 0 32 32" fill="none" xmlns="http://www.w3.org/2000/svg">
<rect x="10.1819" y="12" width="11.6364" height="2.66667" rx="1.33333" fill="#4CAF50"/>
<path d="M19.9744 3.03833L28.9003 9.81524C30.2584 11.502 31 13.6035 31 15.7713V25.8182V27.2C31 29.2987 29.2987 31 27.2 31H23.6H21.8909C21.8407 31 21.8 30.9593 21.8 30.9091V25.6727C21.8 23.795 20.2778 22.2727 18.4 22.2727H16H13.6C11.7222 22.2727 10.2 23.795 10.2 25.6727V30.9091C10.2 30.9593 10.1593 31 10.1091 31H8.2H5.2C2.8804 31 1 29.1196 1 26.8V25.8182V16.4747C1 13.9283 2.11333 11.5093 4.04737 9.8531L12.1497 3.02626C14.622 1.8401 17.5023 1.84292 19.9744 3.03833Z" stroke="#4CAF50" stroke-width="2"/>
</svg>
