<svg width="24" height="32" viewBox="0 0 24 32" fill="none" xmlns="http://www.w3.org/2000/svg">
<path d="M22.5 12.5738C22.5 18.7564 17.7337 23.6475 12 23.6475C6.26626 23.6475 1.5 18.7564 1.5 12.5738C1.5 6.3911 6.26626 1.5 12 1.5C17.7337 1.5 22.5 6.3911 22.5 12.5738Z" stroke="#197BEB" stroke-width="3"/>
<path d="M2.52637 28.5924C2.52637 27.6073 3.44297 26.8783 4.4028 27.1002L10.5292 28.516C11.497 28.7397 12.5031 28.7397 13.4709 28.516L19.5973 27.1002C20.5571 26.8783 21.4737 27.6073 21.4737 28.5924V28.5924C21.4737 29.3054 20.9817 29.9241 20.287 30.0846L14.1333 31.5068C12.7296 31.8312 11.2705 31.8312 9.86681 31.5068L3.71306 30.0846C3.01838 29.9241 2.52637 29.3054 2.52637 28.5924V28.5924Z" fill="#197BEB"/>
</svg>
