<svg width="16" height="19" viewBox="0 0 16 19" fill="none" xmlns="http://www.w3.org/2000/svg">
<path d="M11.0769 2.375H14.7692C15.5077 2.375 16 2.85 16 3.5625V4.75H0V3.5625C0 2.85 0.615385 2.375 1.23077 2.375H4.92308C5.16923 1.06875 6.52308 0 8 0C9.47692 0 10.8308 1.06875 11.0769 2.375ZM6.15385 2.375H9.84615C9.6 1.6625 8.73846 1.1875 8 1.1875C7.26154 1.1875 6.4 1.6625 6.15385 2.375ZM1.23077 5.9375H14.7692L13.6615 17.9312C13.6615 18.525 13.0462 19 12.4308 19H3.56923C2.95385 19 2.46154 18.525 2.33846 17.9312L1.23077 5.9375Z" fill="black"/>
</svg>
