<svg width="17" height="17" viewBox="0 0 17 17" fill="none" xmlns="http://www.w3.org/2000/svg">
<path d="M15.9312 6.13406L11.1347 5.40408L8.99058 0.852135C8.93202 0.727506 8.83567 0.626615 8.71666 0.565289C8.41818 0.410986 8.05546 0.539572 7.90622 0.852135L5.76207 5.40408L0.965577 6.13406C0.833339 6.15384 0.712434 6.21912 0.619867 6.31803C0.507959 6.43848 0.446292 6.60053 0.448417 6.76856C0.450543 6.9366 0.516286 7.09688 0.631202 7.21418L4.10153 10.7572L3.28164 15.7602C3.26242 15.8766 3.27472 15.9963 3.31715 16.1057C3.35957 16.2151 3.43043 16.3099 3.52169 16.3793C3.61295 16.4488 3.72096 16.49 3.83346 16.4984C3.94596 16.5068 4.05846 16.482 4.1582 16.4269L8.4484 14.0648L12.7386 16.4269C12.8557 16.4922 12.9918 16.5139 13.1221 16.4902C13.4508 16.4308 13.6718 16.1044 13.6152 15.7602L12.7953 10.7572L16.2656 7.21418C16.3601 7.11724 16.4224 6.99064 16.4413 6.85216C16.4923 6.50597 16.2618 6.18549 15.9312 6.13406Z" fill="#F1F1F1"/>
</svg>
